<?xml version="1.0" encoding="UTF-8" standalone="no"?>
<!DOCTYPE svg PUBLIC "-//W3C//DTD SVG 1.1//EN" "http://www.w3.org/Graphics/SVG/1.1/DTD/svg11.dtd">
<svg width="100%" height="100%" viewBox="0 0 2054 320" version="1.1" xmlns="http://www.w3.org/2000/svg" xmlns:xlink="http://www.w3.org/1999/xlink" xml:space="preserve" xmlns:serif="http://www.serif.com/" style="fill-rule:evenodd;clip-rule:evenodd;stroke-linejoin:round;stroke-miterlimit:2;">
    <g transform="matrix(2.66667,0,0,2.66667,0,0)">
        <g transform="matrix(1,0,0,1,0.396693,-0.0103018)">
            <path d="M43.177,0.033L38.379,24.02L14.392,24.02L9.595,48.007L33.582,48.007L28.784,71.993L4.797,71.993L0,95.98L23.987,95.98L19.19,119.967L43.177,119.967L47.974,95.98L71.961,95.98L67.163,119.967L91.15,119.967L95.948,95.98C95.948,95.98 119.935,95.98 127.131,60C134.327,24.02 110.34,24.02 110.34,24.02L115.137,0.033L91.15,0.033L86.353,24.02L62.366,24.02L67.163,0.033L43.177,0.033ZM57.569,48.007L93.549,48.007C93.549,48.007 105.543,48.007 103.144,60C100.745,71.993 88.752,71.993 88.752,71.993L52.771,71.993L57.569,48.007ZM583.319,57.199L600.078,57.148C604.79,57.148 608.704,56.502 611.821,55.21C614.937,53.917 617.255,51.979 618.775,49.395C620.333,46.811 621.112,43.6 621.112,39.762C621.112,35.886 620.333,32.618 618.775,29.957C617.255,27.297 614.918,25.283 611.763,23.915C608.647,22.509 604.714,21.806 599.964,21.806L583.319,21.806L583.319,57.199ZM544.611,59.999C544.611,72.729 542.198,83.56 537.371,92.49C532.583,101.421 526.047,108.242 517.763,112.954C509.516,117.629 500.244,119.966 489.945,119.966C479.571,119.966 470.26,117.61 462.014,112.897C453.767,108.185 447.25,101.364 442.462,92.433C437.673,83.503 435.279,72.691 435.279,59.999C435.279,47.268 437.673,36.438 442.462,27.507C447.25,18.577 453.767,11.775 462.014,7.1C470.26,2.388 479.571,0.032 489.945,0.032C500.244,0.032 509.516,2.388 517.763,7.1C526.047,11.775 532.583,18.577 537.371,27.507C542.198,36.438 544.611,47.268 544.611,59.999ZM519.587,59.999C519.587,51.752 518.352,44.798 515.882,39.136C513.449,33.474 510.01,29.179 505.564,26.253C501.118,23.327 495.912,21.864 489.945,21.864C483.979,21.864 478.773,23.327 474.327,26.253C469.88,29.179 466.422,33.473 463.952,39.136C461.52,44.798 460.304,51.752 460.304,59.999C460.304,68.245 461.52,75.2 463.952,80.862C466.422,86.524 469.881,90.818 474.327,93.745C478.773,96.671 483.979,98.134 489.945,98.134C495.912,98.134 501.118,96.671 505.564,93.745C510.01,90.819 513.45,86.524 515.882,80.862C518.352,75.2 519.587,68.245 519.587,59.999ZM423.816,42.499L398.849,42.499C398.393,39.269 397.462,36.4 396.056,33.892C394.65,31.346 392.845,29.179 390.641,27.393C388.437,25.607 385.89,24.239 383.002,23.289C380.152,22.339 377.055,21.864 373.711,21.864C367.669,21.864 362.405,23.365 357.921,26.367C353.437,29.331 349.96,33.663 347.49,39.364C345.019,45.026 343.784,51.904 343.784,59.999C343.784,68.322 345.019,75.314 347.49,80.976C349.998,86.638 353.494,90.913 357.978,93.802C362.462,96.69 367.65,98.134 373.54,98.134C376.846,98.134 379.905,97.697 382.717,96.823C385.567,95.949 388.094,94.676 390.299,93.004C392.503,91.294 394.327,89.223 395.771,86.791C397.253,84.359 398.279,81.585 398.849,78.468L423.816,78.582C423.17,83.941 421.555,89.109 418.971,94.087C416.425,99.027 412.986,103.454 408.654,107.369C404.359,111.245 399.229,114.323 393.263,116.603C387.334,118.845 380.627,119.966 373.14,119.966C362.728,119.966 353.417,117.61 345.209,112.898C337.039,108.185 330.578,101.364 325.828,92.434C321.116,83.503 318.759,72.692 318.759,59.999C318.759,47.269 321.154,36.438 325.942,27.508C330.73,18.577 337.229,11.775 345.437,7.101C353.646,2.388 362.88,0.032 373.141,0.032C379.905,0.032 386.176,0.982 391.952,2.882C397.766,4.782 402.915,7.557 407.399,11.205C411.884,14.815 415.532,19.242 418.344,24.486C421.194,29.731 423.018,35.735 423.816,42.499L423.816,42.499ZM300.463,1.627L300.463,118.37L275.781,118.37L275.781,1.627L300.463,1.627ZM193.265,57.083L205.885,57.148C210.597,57.148 214.512,56.502 217.628,55.21C220.744,53.917 223.062,51.979 224.582,49.395C226.14,46.811 226.919,43.6 226.919,39.762C226.919,35.886 226.14,32.618 224.582,29.957C223.062,27.297 220.725,25.283 217.571,23.915C214.454,22.509 210.521,21.806 205.771,21.806L189.126,21.806L189.126,57.088L193.265,57.083ZM699.044,72.435L728.13,72.552L728.133,72.528L714.314,28.303L713.402,28.303L699.044,72.435ZM734.908,91.732L692.755,91.767L684.1,118.37L657.651,118.37L697.953,1.627L729.76,1.627L770.006,118.37L743.556,118.37L734.908,91.732ZM625.919,73.02L650.697,118.37L623.45,118.37L601.342,76.985L596.637,76.985L583.319,76.971L583.319,118.369L558.637,118.37L558.637,1.627L604.695,1.627C613.512,1.627 621.036,3.204 627.269,6.358C633.539,9.474 638.308,13.901 641.576,19.64C644.882,25.34 646.535,32.047 646.535,39.762C646.535,47.514 644.863,54.184 641.519,59.77C638.175,65.318 633.33,69.575 626.983,72.539C626.632,72.704 626.277,72.864 625.918,73.02L625.919,73.02ZM231.934,72.972L256.504,118.37L229.257,118.37L207.101,77.03L193.399,77.014L189.126,77.026L189.126,118.369L164.444,118.37L164.444,1.627L210.503,1.627C219.319,1.627 226.843,3.204 233.076,6.358C239.346,9.474 244.115,13.901 247.383,19.64C250.689,25.34 252.342,32.047 252.342,39.762C252.342,47.514 250.67,54.184 247.326,59.77C243.982,65.318 239.137,69.575 232.79,72.539C232.441,72.703 231.934,72.972 231.934,72.972Z" style="fill-rule:nonzero;"/>
        </g>
    </g>
</svg>
