<svg xmlns="http://www.w3.org/2000/svg" xml:space="preserve" style="fill-rule:evenodd;clip-rule:evenodd;stroke-linejoin:round;stroke-miterlimit:2" viewBox="0 0 2054 320"><path d="M43.177.033 38.379 24.02H14.392L9.595 48.007h23.987l-4.798 23.986H4.797L0 95.98h23.987l-4.797 23.987h23.987l4.797-23.987h23.987l-4.798 23.987H91.15l4.798-23.987s23.987 0 31.183-35.98-16.791-35.98-16.791-35.98L115.137.033H91.15L86.353 24.02H62.366L67.163.033zm14.392 47.974h35.98s11.994 0 9.595 11.993-14.392 11.993-14.392 11.993H52.771zm525.75 9.192 16.759-.051q7.068 0 11.743-1.938 4.674-1.94 6.954-5.815 2.337-3.876 2.337-9.633 0-5.814-2.337-9.805-2.28-3.99-7.012-6.042-4.674-2.109-11.799-2.109h-16.645zm-38.708 2.8q0 19.096-7.24 32.491-7.182 13.396-19.608 20.464-12.37 7.012-27.818 7.012-15.561 0-27.931-7.069-12.37-7.068-19.552-20.464t-7.183-32.434q0-19.096 7.183-32.492T462.014 7.1Q474.384.032 489.945.032q15.448 0 27.818 7.068 12.426 7.012 19.608 20.407 7.24 13.396 7.24 32.492m-25.024 0q0-12.37-3.705-20.863-3.65-8.493-10.318-12.883-6.669-4.389-15.619-4.389t-15.618 4.389q-6.67 4.389-10.375 12.883-3.648 8.493-3.648 20.863t3.648 20.863q3.706 8.493 10.375 12.883t15.618 4.389q8.95 0 15.619-4.389t10.318-12.883q3.705-8.494 3.705-20.863m-95.771-17.5h-24.967q-.684-4.845-2.793-8.607-2.109-3.82-5.415-6.499t-7.639-4.104q-4.275-1.425-9.291-1.425-9.063 0-15.79 4.503-6.726 4.446-10.431 12.997-3.706 8.493-3.706 20.635 0 12.484 3.706 20.977 3.762 8.493 10.488 12.826 6.726 4.332 15.562 4.332 4.959 0 9.177-1.311 4.275-1.311 7.582-3.819a22 22 0 0 0 5.472-6.213q2.223-3.648 3.078-8.323l24.967.114q-.969 8.038-4.845 15.505-3.819 7.41-10.317 13.282-6.442 5.814-15.391 9.234-8.893 3.363-20.123 3.363-15.619 0-27.931-7.068-12.256-7.07-19.381-20.464-7.069-13.396-7.069-32.435 0-19.095 7.183-32.491t19.495-20.407Q357.75.031 373.141.032q10.147 0 18.811 2.85 8.721 2.85 15.447 8.323 6.727 5.415 10.945 13.281 4.275 7.867 5.472 18.013M300.463 1.627V118.37h-24.682V1.627zM193.265 57.083l12.62.065q7.069 0 11.743-1.938 4.674-1.94 6.954-5.815 2.337-3.876 2.337-9.633 0-5.814-2.337-9.805-2.28-3.99-7.011-6.042-4.675-2.109-11.8-2.109h-16.645v35.282zm505.779 15.352 29.086.117.003-.024-13.819-44.225h-.912zm35.864 19.297-42.153.035-8.655 26.603h-26.449L697.953 1.627h31.807l40.246 116.743h-26.45zM625.919 73.02l24.778 45.35H623.45l-22.108-41.385h-4.705l-13.318-.014v41.398l-24.682.001V1.627h46.058q13.225 0 22.574 4.731 9.405 4.674 14.307 13.282 4.959 8.55 4.959 20.122 0 11.629-5.016 20.008-5.016 8.322-14.536 12.769-.527.247-1.065.481zm-393.985-.048 24.57 45.398h-27.247l-22.156-41.34-13.702-.016-4.273.012v41.343l-24.682.001V1.627h46.059q13.224 0 22.573 4.731 9.405 4.674 14.307 13.282 4.959 8.55 4.959 20.122 0 11.629-5.016 20.008-5.016 8.322-14.536 12.769c-.349.164-.856.433-.856.433" style="fill-rule:nonzero" transform="translate(1.058 -.027)scale(2.66667)"/></svg>