<svg xmlns="http://www.w3.org/2000/svg" xmlns:xlink="http://www.w3.org/1999/xlink" width="595.276" height="841.89" viewBox="0 0 595.276 841.89"><defs><path id="a" d="M6.86.172c3.124 0 5.64-2.516 5.624-5.625-.015-3.11-2.5-5.625-5.625-5.625-3.093 0-5.609 2.515-5.625 5.625C1.22-2.343 3.766.172 6.86.172m0-1.234c-2.423 0-4.391-1.985-4.391-4.391.015-2.422 1.984-4.39 4.39-4.39 2.422 0 4.375 1.952 4.391 4.39.016 2.422-1.953 4.39-4.39 4.39m-3.11-4.39a3.16 3.16 0 0 0 3.172 3.156c1.5 0 2.672-1.062 2.875-2.469H8.5c-.14.72-.766 1.235-1.578 1.235a1.924 1.924 0 0 1-1.938-1.922c0-1.063.86-1.938 1.938-1.938.812 0 1.547.532 1.687 1.25h1.282c-.203-1.406-1.47-2.484-2.97-2.484A3.174 3.174 0 0 0 3.75-5.453m0 0"/><path id="b" d="M1.125 0h6.89v-1.172H2.938v-.078l2.454-2.625c1.875-2.016 2.422-2.953 2.422-4.156 0-1.688-1.36-3.031-3.282-3.031-1.906 0-3.36 1.296-3.36 3.218h1.25c0-1.234.813-2.062 2.079-2.062 1.172 0 2.078.719 2.078 1.875 0 1-.578 1.75-1.844 3.125L1.125-.953Zm0 0"/><path id="c" d="M4.688.156c2.406 0 3.796-2.047 3.796-5.61 0-3.53-1.406-5.608-3.796-5.608C2.297-11.062.89-8.984.89-5.453c0 3.562 1.39 5.61 3.797 5.61m0-1.172c-1.594 0-2.516-1.593-2.516-4.437 0-2.828.937-4.453 2.516-4.453S7.202-8.28 7.202-5.452c0 2.844-.922 4.437-2.516 4.437m0 0"/><path id="d" d="M4.969-10.906H3.64L.92-9.094v1.344l2.657-1.781h.063V0h1.328Zm0 0"/><path id="e" d="M1.328 0h1.313v-4.266h2.672L7.608 0H9.14L6.67-4.5c1.393-.484 2.05-1.61 2.05-3.062 0-1.938-1.156-3.344-3.719-3.344H1.328Zm1.313-5.453v-4.281h2.328c1.765 0 2.453.859 2.453 2.172 0 1.312-.688 2.109-2.438 2.109Zm0 0"/><path id="f" d="M2.64-10.906H1.329V0h1.313Zm0 0"/><path id="g" d="M10.094-7.5c-.406-2.234-2.188-3.562-4.39-3.562C2.921-11.062.89-8.906.89-5.453S2.92.157 5.703.157c2.203 0 3.984-1.329 4.39-3.563H8.782c-.328 1.515-1.625 2.312-3.078 2.312-1.969 0-3.531-1.531-3.531-4.36 0-2.827 1.562-4.374 3.531-4.374 1.453 0 2.75.812 3.078 2.328Zm0 0"/><path id="h" d="M10.531-5.453c0-3.453-2.031-5.61-4.828-5.61-2.781 0-4.812 2.157-4.812 5.61S2.92.157 5.703.157C8.5.156 10.531-2 10.531-5.454m-1.281 0c0 2.828-1.562 4.36-3.547 4.36-1.969 0-3.531-1.532-3.531-4.36s1.562-4.375 3.531-4.375c1.984 0 3.547 1.547 3.547 4.375m0 0"/><path id="i" d="m1.766 0 1.093-3.094h4.422L8.375 0h1.39L5.75-10.906H4.39L.39 0ZM3.28-4.266l1.75-4.921h.078l1.75 4.921Zm0 0"/><path id="j" d="M2.063.078a.96.96 0 0 0 .968-.953.96.96 0 0 0-.969-.953.957.957 0 0 0-.953.953c0 .531.438.953.954.953m0 0"/><path id="l" d="M4.688 0C8.015 0 9.89-2.062 9.89-5.469c0-3.39-1.875-5.437-5.047-5.437H1.328V0ZM2.64-1.172v-8.562h2.11c2.563 0 3.86 1.609 3.86 4.265 0 2.657-1.297 4.297-4 4.297Zm0 0"/><path id="m" d="M4.578.172c1.672 0 2.875-.828 3.266-2.063l-1.219-.343c-.312.843-1.062 1.28-2.047 1.28-1.469 0-2.484-.952-2.547-2.718H7.97v-.531c0-3.047-1.813-4.078-3.516-4.078-2.219 0-3.687 1.734-3.687 4.25S2.219.172 4.578.172M2.031-4.75c.078-1.281.985-2.406 2.422-2.406 1.36 0 2.234 1.015 2.234 2.406Zm0 0"/><path id="n" d="M6.953-6.344C6.547-7.516 5.672-8.28 4.047-8.28c-1.719 0-3 .969-3 2.36 0 1.124.672 1.89 2.172 2.234l1.36.328c.827.187 1.218.578 1.218 1.14 0 .703-.75 1.281-1.922 1.281-1.031 0-1.672-.437-1.89-1.328L.78-1.953C1.078-.563 2.234.172 3.906.172c1.89 0 3.188-1.047 3.188-2.453 0-1.14-.719-1.86-2.172-2.219l-1.219-.297c-.969-.234-1.406-.562-1.406-1.187 0-.703.75-1.22 1.75-1.22 1.094 0 1.547.61 1.766 1.173Zm0 0"/><path id="o" d="M1.156 0h1.25v-8.187h-1.25Zm.64-9.547c.485 0 .892-.375.892-.844s-.407-.859-.891-.859c-.5 0-.906.39-.906.86 0 .468.406.843.906.843m0 0"/><path id="p" d="M4.453 3.234c1.953 0 3.531-.89 3.531-3v-8.421H6.781v1.312h-.14c-.266-.437-.782-1.406-2.375-1.406-2.078 0-3.5 1.64-3.5 4.14 0 2.563 1.5 4.016 3.468 4.016 1.61 0 2.11-.937 2.391-1.39h.11v1.67c0 1.36-.954 1.969-2.282 1.969-1.484 0-2.016-.781-2.344-1.234l-1 .703c.516.86 1.516 1.64 3.344 1.64M4.406-1.25c-1.578 0-2.375-1.203-2.375-2.906 0-1.657.781-3 2.375-3 1.532 0 2.344 1.234 2.344 3 0 1.812-.828 2.906-2.344 2.906m0 0"/><path id="q" d="M2.406-4.922c0-1.422.89-2.234 2.094-2.234 1.156 0 1.875.765 1.875 2.047V0h1.25v-5.203c0-2.078-1.11-3.078-2.766-3.078-1.234 0-2 .547-2.39 1.375h-.11v-1.282H1.156V0h1.25Zm0 0"/><path id="r" d="M4.234.172c1.579 0 2.11-.984 2.391-1.422h.156V0h1.203v-10.906h-1.25v4.031h-.109c-.281-.437-.766-1.406-2.36-1.406-2.077 0-3.5 1.64-3.5 4.219C.766-1.47 2.188.172 4.236.172m.172-1.125c-1.578 0-2.375-1.39-2.375-3.14 0-1.72.781-3.063 2.375-3.063 1.532 0 2.344 1.234 2.344 3.062 0 1.86-.828 3.14-2.344 3.14m0 0"/><path id="s" d="M1.328 0h1.203v-1.25h.156C2.97-.812 3.5.172 5.079.172c2.031 0 3.469-1.64 3.469-4.234 0-2.579-1.438-4.22-3.5-4.22-1.594 0-2.078.97-2.36 1.407h-.109v-4.031h-1.25Zm1.235-4.094c0-1.828.796-3.062 2.343-3.062 1.594 0 2.375 1.343 2.375 3.062 0 1.75-.797 3.14-2.375 3.14-1.515 0-2.343-1.28-2.343-3.14m0 0"/><path id="t" d="M1.953 3.063c1.14 0 1.938-.594 2.422-1.876l3.469-9.374h-1.36L4.22-1.657h-.08l-2.266-6.53H.515L3.532.046l-.234.64c-.453 1.235-1.016 1.36-1.938 1.126l-.312 1.109c.125.062.484.14.906.14m0 0"/><path id="u" d="M1.328 0h1.313v-3.531L4-5.078 7.797 0H9.39L4.813-5.984l4.578-4.922H7.67L2.767-5.5H2.64v-5.406H1.328Zm0 0"/><path id="v" d="M3.563.188c1.421 0 2.171-.766 2.421-1.297h.063V0h1.266v-5.39c0-2.594-1.985-2.891-3.032-2.891-1.234 0-2.64.422-3.281 1.906l1.188.438c.28-.61.937-1.25 2.14-1.25 1.156 0 1.719.625 1.719 1.671v.047c0 .594-.61.547-2.11.735-1.515.203-3.171.53-3.171 2.406C.766-.718 2 .188 3.563.188M3.75-.937c-1 0-1.719-.454-1.719-1.329 0-.953.86-1.25 1.844-1.375.531-.062 1.969-.218 2.172-.468v1.14c0 1.031-.813 2.031-2.297 2.031m0 0"/><path id="w" d="M1.156 0h1.25v-3.062l.875-.813L6.344 0h1.61l-3.72-4.687 3.454-3.5H6.14L2.563-4.531h-.157v-6.375h-1.25Zm0 0"/><path id="x" d="M6.313-3.344c0 1.531-1.172 2.235-2.11 2.235-1.047 0-1.797-.766-1.797-1.953v-5.126h-1.25v5.204c0 2.093 1.11 3.093 2.64 3.093 1.235 0 2.048-.656 2.423-1.5h.093V0h1.25v-8.187h-1.25Zm0 0"/><path id="y" d="M4.469.172c2.218 0 3.718-1.688 3.718-4.219 0-2.562-1.5-4.234-3.718-4.234C2.266-8.281.766-6.61.766-4.047c0 2.531 1.5 4.219 3.703 4.219m0-1.125c-1.672 0-2.438-1.453-2.438-3.094s.766-3.11 2.438-3.11c1.687 0 2.453 1.47 2.453 3.11S6.156-.953 4.469-.953m0 0"/><path id="z" d="M4.703-8.187H2.97v-1.954H1.703v1.954H.47v1.078h1.234V-2C1.703-.578 2.86.11 3.922.11c.469 0 .765-.094.937-.157l-.25-1.125c-.109.016-.28.063-.562.063-.547 0-1.078-.172-1.078-1.235v-4.765h1.734Zm0 0"/><path id="A" d="M1.156 0h1.25v-5.172c0-1.11.875-1.922 2.063-1.922.343 0 .687.063.765.078V-8.28a8 8 0 0 0-.656-.031c-.984 0-1.828.562-2.125 1.359H2.36v-1.234H1.156Zm0 0"/><path id="B" d="M3.828-4.61c0-2.671-.719-4.921-2.015-6.812H.702C1.72-10.016 2.531-7.14 2.531-4.609c0 2.547-.812 5.422-1.828 6.828h1.11C3.109.313 3.828-1.921 3.828-4.61m0 0"/><path id="k" d="M1.594-5.453c0 2.687.734 4.922 2.031 6.812h1.11C3.702-.047 2.89-2.92 2.89-5.453s.812-5.406 1.843-6.813H3.625C2.328-10.375 1.594-8.14 1.594-5.453m0 0"/><path id="C" d="M14.563 0c10.046 0 16.14-6.219 16.14-16.531 0-10.266-6.094-16.453-16.047-16.453H2.875V0Zm-4.72-5.969v-21.047h4.438c6.188 0 9.469 3.157 9.469 10.485 0 7.36-3.281 10.562-9.484 10.562Zm0 0"/><path id="D" d="M14.016.484c6.125 0 10.25-2.984 11.203-7.578L18.875-7.5c-.687 1.875-2.469 2.86-4.75 2.86-3.422 0-5.61-2.266-5.61-5.954v-.015h16.86V-12.5c0-8.406-5.094-12.562-11.64-12.562-7.282 0-12 5.171-12 12.796 0 7.86 4.656 12.75 12.28 12.75m-5.5-15.359c.156-2.812 2.297-5.062 5.343-5.062 2.97 0 5.032 2.125 5.047 5.062Zm0 0"/><path id="E" d="M23.328-17.687c-.61-4.563-4.281-7.375-10.531-7.375-6.344 0-10.516 2.937-10.5 7.703-.016 3.703 2.328 6.093 7.156 7.062l4.281.86C15.891-9 16.875-8.22 16.906-6.97c-.031 1.453-1.625 2.5-4.015 2.5-2.453 0-4.078-1.047-4.5-3.047l-6.75.344C2.28-2.437 6.313.484 12.875.484c6.406 0 11-3.265 11.016-8.156-.016-3.578-2.36-5.719-7.157-6.703l-4.468-.89c-2.313-.5-3.172-1.297-3.157-2.485-.015-1.484 1.672-2.453 3.797-2.453 2.375 0 3.797 1.312 4.14 2.906Zm0 0"/><path id="F" d="M2.734 0h6.86v-24.734h-6.86Zm3.454-27.937c2.046 0 3.718-1.563 3.718-3.47 0-1.905-1.672-3.468-3.719-3.468-2.03 0-3.703 1.563-3.703 3.469s1.672 3.468 3.704 3.468m0 0"/><path id="G" d="M13.89 9.797c7.063 0 12.094-3.219 12.094-9.563v-24.968h-6.812v4.156h-.266c-.906-2.016-2.922-4.485-7.062-4.485-5.438 0-10.031 4.22-10.031 12.641C1.813-4.187 6.28-.359 11.859-.359c3.938 0 6.157-1.97 7.047-4.016h.297V.141c0 3.406-2.172 4.718-5.156 4.718-3.031 0-4.563-1.312-5.125-2.812l-6.344.86c.828 3.89 4.64 6.89 11.313 6.89m.141-15.313c-3.375 0-5.203-2.671-5.203-6.937 0-4.203 1.797-7.156 5.203-7.156 3.328 0 5.203 2.828 5.203 7.156 0 4.36-1.906 6.937-5.203 6.937m0 0"/><path id="H" d="M9.594-14.297c.015-3.203 1.922-5.062 4.687-5.062s4.422 1.797 4.406 4.828V0h6.86v-15.75c0-5.766-3.375-9.312-8.531-9.312-3.672 0-6.344 1.796-7.453 4.687H9.28v-4.36H2.734V0h6.86Zm0 0"/></defs><path fill="#fff" d="M0 0h595.277v841.89H0Zm0 0"/><path d="m269.29 350.078-5.669 28.348h-28.344l-5.672 28.347h28.348l-5.668 28.344h-28.347l-5.672 28.348h28.347l-5.668 28.348h28.344l5.672-28.348h28.348l-5.672 28.348h28.347l5.668-28.348s28.348 0 36.852-42.52-19.844-42.52-19.844-42.52l5.668-28.347h-28.344l-5.668 28.348H291.97l5.668-28.348Zm17.007 56.695h42.52s14.175 0 11.34 14.172c-2.837 14.172-17.009 14.172-17.009 14.172h-42.52Zm0 0"/><use xlink:href="#a" x="55.457" y="781.963"/><use xlink:href="#b" x="69.178" y="781.963"/><use xlink:href="#c" x="78.255" y="781.963"/><use xlink:href="#b" x="87.63" y="781.963"/><use xlink:href="#d" x="96.707" y="781.963"/><use xlink:href="#e" x="107.893" y="781.963"/><use xlink:href="#f" x="117.481" y="781.963"/><use xlink:href="#g" x="121.444" y="781.963"/><use xlink:href="#h" x="132.353" y="781.963"/><use xlink:href="#e" x="143.773" y="781.963"/><use xlink:href="#i" x="153.361" y="781.963"/><use xlink:href="#j" x="163.503" y="781.963"/><use xlink:href="#k" x="171.855" y="781.963"/><use xlink:href="#l" x="177.289" y="781.963"/><use xlink:href="#m" x="188.07" y="781.963"/><use xlink:href="#n" x="196.806" y="781.963"/><use xlink:href="#o" x="204.646" y="781.963"/><use xlink:href="#p" x="208.205" y="781.963"/><use xlink:href="#q" x="217.345" y="781.963"/><use xlink:href="#m" x="226.124" y="781.963"/><use xlink:href="#r" x="234.859" y="781.963"/><use xlink:href="#s" x="248.389" y="781.963"/><use xlink:href="#t" x="257.4" y="781.963"/><use xlink:href="#u" x="269.971" y="781.963"/><use xlink:href="#v" x="279.751" y="781.963"/><use xlink:href="#w" x="288.21" y="781.963"/><use xlink:href="#x" x="296.37" y="781.963"/><use xlink:href="#r" x="305.085" y="781.963"/><use xlink:href="#y" x="314.396" y="781.963"/><use xlink:href="#u" x="327.563" y="781.963"/><use xlink:href="#m" x="336.743" y="781.963"/><use xlink:href="#q" x="345.479" y="781.963"/><use xlink:href="#z" x="354.257" y="781.963"/><use xlink:href="#v" x="359.712" y="781.963"/><use xlink:href="#A" x="368.17" y="781.963"/><use xlink:href="#y" x="373.498" y="781.963"/><use xlink:href="#B" x="382.281" y="781.963"/><use xlink:href="#C" x="53.826" y="89.678"/><use xlink:href="#D" x="86.811" y="89.678"/><use xlink:href="#E" x="113.917" y="89.678"/><use xlink:href="#F" x="139.397" y="89.678"/><use xlink:href="#G" x="151.734" y="89.678"/><use xlink:href="#H" x="180.451" y="89.678"/></svg>