<svg xmlns="http://www.w3.org/2000/svg" xmlns:xlink="http://www.w3.org/1999/xlink" width="595.276" height="841.89" viewBox="0 0 595.276 841.89"><defs><path id="a" d="M14.563 0H2.874v-32.984h11.781q4.981 0 8.563 1.968 3.591 1.97 5.531 5.657 1.951 3.69 1.953 8.828 0 5.155-1.953 8.86-1.938 3.704-5.547 5.687C20.797-.66 17.914 0 14.563 0m-4.72-5.969h4.423c2.062 0 3.797-.367 5.203-1.11q2.123-1.105 3.203-3.437 1.078-2.324 1.078-6.015 0-3.656-1.078-5.969-1.078-2.325-3.188-3.422c-1.406-.726-3.14-1.094-5.203-1.094H9.844Zm0 0"/><path id="b" d="M14.016.484q-3.814 0-6.563-1.546Q4.7-2.623 3.22-5.484c-.992-1.907-1.485-4.164-1.485-6.782q-.002-3.81 1.485-6.687 1.482-2.889 4.172-4.5c1.8-1.07 3.914-1.61 6.343-1.61 1.633 0 3.157.262 4.563.782A10.3 10.3 0 0 1 22-21.938q1.594 1.566 2.484 3.922.891 2.363.891 5.516v1.89H4.485v-4.265h14.421q-.001-1.466-.64-2.61a4.6 4.6 0 0 0-1.782-1.796q-1.142-.657-2.625-.657c-1.043 0-1.964.243-2.765.72a5.1 5.1 0 0 0-1.89 1.906 5.5 5.5 0 0 0-.688 2.671v4.047c0 1.219.226 2.278.687 3.172a4.97 4.97 0 0 0 1.938 2.063q1.263.719 2.984.718c.758 0 1.457-.101 2.094-.312a4.4 4.4 0 0 0 1.625-.969c.457-.437.8-.96 1.031-1.578l6.344.406q-.486 2.3-1.969 4c-.992 1.125-2.266 2.008-3.828 2.64q-2.346.939-5.406.938m0 0"/><path id="c" d="m23.328-17.687-6.281.39a3.4 3.4 0 0 0-.703-1.453q-.534-.655-1.39-1.047-.863-.405-2.048-.406-1.594.002-2.703.672-1.094.674-1.094 1.781 0 .891.704 1.5.716.609 2.453.984l4.468.891c2.407.5 4.196 1.297 5.375 2.39q1.782 1.641 1.782 4.313c0 1.625-.48 3.055-1.438 4.281q-1.424 1.829-3.89 2.86Q16.09.484 12.875.484 7.954.485 5.047-1.562 2.14-3.623 1.64-7.172l6.75-.344q.312 1.488 1.484 2.266 1.17.783 3.016.781c1.195 0 2.16-.226 2.89-.687.739-.469 1.114-1.07 1.125-1.813q-.017-.936-.797-1.531-.768-.61-2.375-.937l-4.28-.86q-3.628-.716-5.392-2.5c-1.18-1.195-1.765-2.719-1.765-4.562 0-1.594.43-2.961 1.297-4.11q1.295-1.717 3.656-2.656c1.57-.625 3.422-.937 5.547-.937 3.125 0 5.582.664 7.375 1.984q2.7 1.986 3.156 5.39m0 0"/><path id="d" d="M2.734 0v-24.734h6.86V0Zm3.47-27.937c-1.024 0-1.9-.336-2.626-1.016q-1.094-1.03-1.094-2.453 0-1.418 1.094-2.438 1.091-1.03 2.61-1.031 1.546 0 2.625 1.031c.726.68 1.093 1.492 1.093 2.438q-.002 1.422-1.094 2.453c-.718.68-1.59 1.015-2.609 1.015m0 0"/><path id="e" d="M13.89 9.625c-2.23 0-4.136-.305-5.718-.906Q5.795 7.827 4.39 6.297q-1.393-1.534-1.813-3.39l6.344-.86c.195.445.504.875.922 1.281.414.406.969.735 1.656.985.695.257 1.547.39 2.547.39q2.233 0 3.687-1.062c.977-.711 1.47-1.875 1.47-3.5v-4.516h-.298q-.456 1.033-1.36 1.953-.891.91-2.312 1.485-1.405.579-3.375.578-2.8.002-5.078-1.297-2.266-1.297-3.625-3.969-1.346-2.684-1.344-6.797 0-4.201 1.376-7.015 1.371-2.825 3.64-4.22 2.28-1.405 5.016-1.405 2.074 0 3.469.703 1.404.704 2.265 1.75c.57.687 1.016 1.367 1.328 2.03h.266v-4.155h6.812V.234q0 3.094-1.547 5.172c-1.03 1.395-2.46 2.446-4.28 3.157q-2.738 1.061-6.266 1.062m.141-15.14q1.653.002 2.813-.829Q18-7.17 18.609-8.719q.623-1.56.625-3.734 0-2.17-.609-3.766-.61-1.607-1.781-2.5-1.16-.89-2.813-.89-1.687 0-2.86.922-1.158.909-1.75 2.515-.595 1.61-.593 3.719c0 1.43.195 2.664.594 3.703q.607 1.547 1.765 2.39t2.844.844m0 0"/><path id="f" d="M9.594-14.297V0h-6.86v-24.734h6.547v4.359h.281a7 7 0 0 1 2.75-3.422q1.936-1.266 4.704-1.265 2.575 0 4.484 1.125 1.92 1.126 2.984 3.218 1.062 2.08 1.063 4.969V0h-6.86v-14.531q.012-2.263-1.171-3.547-1.173-1.28-3.235-1.281-1.377.001-2.437.593-1.05.598-1.64 1.735-.599 1.141-.61 2.734m0 0"/></defs><path fill="#fff" d="M0 0h595.277v841.89H0Zm0 0"/><path fill="none" stroke="#000" stroke-width="1.417" d="m269.29 350.078-5.669 28.348h-28.344l-5.672 28.347h28.348l-5.668 28.344h-28.347l-5.672 28.348h28.347l-5.668 28.348h28.344l5.672-28.348h28.348l-5.672 28.348h28.347l5.668-28.348s28.348 0 36.852-42.52-19.844-42.52-19.844-42.52l5.668-28.347h-28.344l-5.668 28.348H291.97l5.668-28.348Zm17.007 56.695h42.52s14.175 0 11.34 14.172c-2.837 14.172-17.009 14.172-17.009 14.172h-42.52Zm0 0"/><path fill="none" stroke="#000" stroke-linecap="round" stroke-opacity=".253" stroke-width="1.417" d="m311.813 279.21-56.696 283.466"/><path fill="none" stroke="#000" stroke-linecap="round" stroke-opacity=".245" stroke-width="1.417" d="M155.906 491.813h283.465m-283.465-28.348h283.465m-283.465-28.348h283.465m-283.465-28.344h283.465m-283.465-28.347h283.465m-283.465-28.348h283.465"/><path fill="none" stroke="#000" stroke-linecap="round" stroke-opacity=".253" stroke-width="1.417" d="m283.465 279.21-56.692 283.466m28.344-283.466-56.691 283.466M368.504 279.21l-56.692 283.466m85.04-283.466-56.696 283.466m0-283.466-56.691 283.466"/><path fill="none" stroke="#4caf50" stroke-linecap="round" stroke-width="1.417" d="M377.008 378.426 360 463.465"/><use xlink:href="#a" x="53.826" y="89.678"/><use xlink:href="#b" x="86.799" y="89.678"/><use xlink:href="#c" x="113.875" y="89.678"/><use xlink:href="#d" x="139.319" y="89.678"/><use xlink:href="#e" x="151.655" y="89.678"/><use xlink:href="#f" x="180.365" y="89.678"/><path fill="#ff9800" d="m374.172 378.426 2.836-2.836 2.836 2.836-2.836 2.836Zm-17.008 85.039 2.836-2.836 2.836 2.836L360 466.3Zm8.504-42.52 2.836-2.836 2.836 2.836-2.836 2.836Zm0 0"/><path fill="none" stroke="#4caf50" stroke-linecap="round" stroke-width="1.417" d="m342.992 406.773-5.668 28.344"/><path fill="#ff9800" d="m337.324 420.945 2.832-2.836 2.836 2.836-2.836 2.836Zm2.832-14.172 2.836-2.836 2.836 2.836-2.836 2.832Zm-5.668 28.344 2.836-2.832 2.832 2.832-2.832 2.836Zm0 0"/></svg>