<svg xmlns="http://www.w3.org/2000/svg" xmlns:xlink="http://www.w3.org/1999/xlink" width="595.276" height="841.89" viewBox="0 0 595.276 841.89"><defs><path id="a" d="M4.797 0h11.672v-19.562h8.515L35.437 0h12.876l-11.72-21.453c6.282-2.688 9.75-8.156 9.75-15.703 0-10.969-7.25-18.031-19.78-18.031H4.797Zm11.672-28.937v-16.704h7.86c6.733 0 10 2.985 10 8.485 0 5.468-3.267 8.218-9.938 8.218Zm0 0"/><path id="b" d="M16.469-55.187H4.797V0h11.672Zm0 0"/><path id="c" d="M53.484-35.86c-1.53-12.75-11.187-20.077-23.953-20.077-14.578 0-25.703 10.296-25.703 28.343C3.828-9.594 14.766.75 29.531.75c14.14 0 22.688-9.406 23.953-19.562l-11.797-.047c-1.109 5.906-5.75 9.297-11.968 9.297-8.375 0-14.063-6.235-14.063-18.032 0-11.468 5.61-18.015 14.14-18.015 6.392 0 11 3.687 11.892 9.75Zm0 0"/><path id="d" d="M55.5-27.594c0-18.047-11.203-28.343-25.828-28.343-14.719 0-25.844 10.296-25.844 28.343C3.828-9.625 14.953.75 29.672.75 44.297.75 55.5-9.531 55.5-27.594m-11.828 0c0 11.703-5.547 18.032-14 18.032-8.5 0-14.016-6.329-14.016-18.032 0-11.687 5.516-18.015 14.016-18.015 8.453 0 14 6.328 14 18.015m0 0"/><path id="e" d="m14.313 0 4.093-12.578h19.907L42.406 0h12.5L35.891-55.187H20.859L1.813 0Zm7.046-21.687 6.797-20.891h.438l6.781 20.89Zm0 0"/><path id="f" d="M6.094.188c2.672 0 4.656-1.672 4.656-3.938 0-1.75-1.031-3.016-2.781-3.312v-.11c1.406-.422 2.265-1.562 2.265-3.125 0-1.953-1.53-3.687-4.093-3.687-2.375 0-4.36 1.468-4.438 3.64h1.61c.062-1.375 1.374-2.187 2.796-2.187 1.532 0 2.516.922 2.516 2.312 0 1.469-1.14 2.406-2.781 2.406h-1.11v1.485h1.11c2.093 0 3.265 1.062 3.265 2.578 0 1.469-1.28 2.453-3.046 2.453-1.594 0-2.86-.812-2.97-2.156H1.407C1.5-1.281 3.422.187 6.094.187m0 0"/><path id="g" d="M6.281-13.797H4.61L1.156-11.5v1.688l3.375-2.235h.078V0h1.672Zm0 0"/><path id="h" d="M5.922.188c3.047 0 4.797-2.579 4.797-7.079 0-4.484-1.766-7.093-4.797-7.093-3.016 0-4.797 2.609-4.797 7.093 0 4.5 1.766 7.079 4.797 7.079m0-1.485c-2 0-3.172-2.016-3.172-5.594 0-3.593 1.188-5.64 3.172-5.64 2 0 3.187 2.047 3.187 5.64 0 3.579-1.171 5.594-3.187 5.594m0 0"/><path id="i" d="M4.172-13.969H1.219V0h2.953Zm0 0"/><path id="j" d="M4.063-6.062c.015-1.344.812-2.141 1.984-2.141s1.875.765 1.86 2.047V0h2.906v-6.672c0-2.437-1.422-3.937-3.61-3.937-1.562 0-2.687.765-3.156 1.984h-.125v-1.844H1.156V0h2.907Zm0 0"/><path id="k" d="M6.734-10.469H4.766v-2.515H1.859v2.515H.422v2.172h1.437v5.453C1.844-.78 3.234.234 5.344.141a6 6 0 0 0 1.578-.266l-.453-2.172a3.7 3.7 0 0 1-.735.094c-.578 0-.968-.203-.968-1.016v-5.078h1.968Zm0 0"/><path id="l" d="M5.938.203C8.53.203 10.266-1.062 10.672-3l-2.688-.172c-.28.797-1.03 1.203-2 1.203-1.453 0-2.375-.953-2.375-2.515V-4.5h7.125v-.797c0-3.547-2.156-5.312-4.921-5.312-3.079 0-5.079 2.187-5.079 5.422 0 3.312 1.97 5.39 5.204 5.39m-2.329-6.5c.063-1.187.97-2.14 2.25-2.14 1.266 0 2.141.89 2.141 2.14Zm0 0"/><path id="m" d="M1.156 0h2.907v-5.922c0-1.297.937-2.172 2.218-2.172.407 0 .953.063 1.235.156v-2.578a4.4 4.4 0 0 0-.922-.109c-1.172 0-2.125.688-2.516 1.984h-.11v-1.828H1.157Zm0 0"/><path id="n" d="M1.219 0h5.969c3.125 0 4.796-1.64 4.796-3.86 0-2.062-1.468-3.312-3.062-3.39v-.14c1.453-.329 2.515-1.36 2.515-3 0-2.094-1.546-3.579-4.624-3.579H1.218Zm2.953-2.406v-3.719H6.64c1.422 0 2.297.813 2.297 1.969 0 1.047-.72 1.75-2.36 1.75Zm0-5.719v-3.453h2.234c1.313 0 2.063.672 2.063 1.687 0 1.094-.906 1.766-2.11 1.766Zm0 0"/><path id="o" d="M5.89.203c3.173 0 5.157-2.172 5.157-5.406S9.062-10.61 5.89-10.61.734-8.437.734-5.203 2.72.203 5.891.203m.016-2.25c-1.468 0-2.218-1.344-2.218-3.172s.75-3.172 2.218-3.172c1.438 0 2.188 1.344 2.188 3.172s-.75 3.172-2.188 3.172m0 0"/><path id="p" d="M4.063-13.969H1.156V0h2.907Zm0 0"/><path id="q" d="M5.016.172c1.687 0 2.578-.969 2.968-1.844h.125V0h2.875v-13.969H8.078v5.25h-.094c-.375-.844-1.218-1.89-2.968-1.89-2.297 0-4.25 1.78-4.25 5.39 0 3.5 1.859 5.39 4.25 5.39m.922-2.313c-1.422 0-2.204-1.265-2.204-3.093 0-1.813.766-3.063 2.204-3.063 1.406 0 2.203 1.188 2.203 3.063 0 1.859-.797 3.093-2.203 3.093m0 0"/><path id="r" d="M14.563 0c10.046 0 16.14-6.219 16.14-16.531 0-10.266-6.094-16.453-16.047-16.453H2.875V0Zm-4.72-5.969v-21.047h4.438c6.188 0 9.469 3.157 9.469 10.485 0 7.36-3.281 10.562-9.484 10.562Zm0 0"/><path id="s" d="M14.016.484c6.125 0 10.25-2.984 11.203-7.578L18.875-7.5c-.687 1.875-2.469 2.86-4.75 2.86-3.422 0-5.61-2.266-5.61-5.954v-.015h16.86V-12.5c0-8.406-5.094-12.562-11.64-12.562-7.282 0-12 5.171-12 12.796 0 7.86 4.656 12.75 12.28 12.75m-5.5-15.359c.156-2.812 2.297-5.062 5.343-5.062 2.97 0 5.032 2.125 5.047 5.062Zm0 0"/><path id="t" d="M23.328-17.687c-.61-4.563-4.281-7.375-10.531-7.375-6.344 0-10.516 2.937-10.5 7.703-.016 3.703 2.328 6.093 7.156 7.062l4.281.86C15.891-9 16.875-8.22 16.906-6.97c-.031 1.453-1.625 2.5-4.015 2.5-2.453 0-4.078-1.047-4.5-3.047l-6.75.344C2.28-2.437 6.313.484 12.875.484c6.406 0 11-3.265 11.016-8.156-.016-3.578-2.36-5.719-7.157-6.703l-4.468-.89c-2.313-.5-3.172-1.297-3.157-2.485-.015-1.484 1.672-2.453 3.797-2.453 2.375 0 3.797 1.312 4.14 2.906Zm0 0"/><path id="u" d="M2.734 0h6.86v-24.734h-6.86Zm3.454-27.937c2.046 0 3.718-1.563 3.718-3.47 0-1.905-1.672-3.468-3.719-3.468-2.03 0-3.703 1.563-3.703 3.469s1.672 3.468 3.704 3.468m0 0"/><path id="v" d="M13.89 9.797c7.063 0 12.094-3.219 12.094-9.563v-24.968h-6.812v4.156h-.266c-.906-2.016-2.922-4.485-7.062-4.485-5.438 0-10.031 4.22-10.031 12.641C1.813-4.187 6.28-.359 11.859-.359c3.938 0 6.157-1.97 7.047-4.016h.297V.141c0 3.406-2.172 4.718-5.156 4.718-3.031 0-4.563-1.312-5.125-2.812l-6.344.86c.828 3.89 4.64 6.89 11.313 6.89m.141-15.313c-3.375 0-5.203-2.671-5.203-6.937 0-4.203 1.797-7.156 5.203-7.156 3.328 0 5.203 2.828 5.203 7.156 0 4.36-1.906 6.937-5.203 6.937m0 0"/><path id="w" d="M9.594-14.297c.015-3.203 1.922-5.062 4.687-5.062s4.422 1.797 4.406 4.828V0h6.86v-15.75c0-5.766-3.375-9.312-8.531-9.312-3.672 0-6.344 1.796-7.453 4.687H9.28v-4.36H2.734V0h6.86Zm0 0"/></defs><path fill="#fff" d="M0 0h595.277v841.89H0Zm0 0"/><path fill="#4caf50" fill-opacity=".495" d="M193.383 392.598h286.25v56.695h-286.25Zm-77.738 0h60.73v56.695h-60.73Zm0 0"/><path d="m136.055 392.598-2.27 11.34H122.45l-2.27 11.34h11.34l-2.269 11.335h-11.336l-2.27 11.34h11.34l-2.27 11.34h11.34l2.266-11.34h11.34l-2.265 11.34h11.335l2.27-11.34s11.336 0 14.738-17.008c3.403-17.007-7.937-17.007-7.937-17.007l2.27-11.34h-11.34l-2.266 11.34h-11.34l2.27-11.34Zm6.804 22.68h17.008s5.668 0 4.535 5.667c-1.136 5.668-6.804 5.668-6.804 5.668H140.59Zm0 0"/><use xlink:href="#a" x="188.588" y="448.537"/><use xlink:href="#b" x="241.191" y="448.537"/><use xlink:href="#c" x="262.477" y="448.537"/><use xlink:href="#d" x="317.575" y="448.537"/><use xlink:href="#a" x="374.935" y="448.537"/><use xlink:href="#e" x="424.73" y="448.537"/><use xlink:href="#f" x="178.804" y="386.741" fill="#4caf50"/><g fill="#4caf50"><use xlink:href="#g" x="484.144" y="427.843"/><use xlink:href="#h" x="492.955" y="427.843"/></g><g fill="#4caf50"><use xlink:href="#g" x="90.159" y="427.843"/><use xlink:href="#h" x="98.971" y="427.843"/></g><use xlink:href="#i" x="291.326" y="476.016"/><use xlink:href="#j" x="296.714" y="476.016"/><use xlink:href="#k" x="308.657" y="476.016"/><use xlink:href="#l" x="316.004" y="476.016"/><use xlink:href="#m" x="327.483" y="476.016"/><use xlink:href="#n" x="339.787" y="476.016"/><use xlink:href="#o" x="352.481" y="476.016"/><use xlink:href="#p" x="364.267" y="476.016"/><use xlink:href="#q" x="369.491" y="476.016"/><path fill="none" stroke="#4caf50" stroke-linecap="round" stroke-width="1.417" d="M176.375 392.598h17.008"/><use xlink:href="#r" x="53.826" y="89.678"/><use xlink:href="#s" x="86.811" y="89.678"/><use xlink:href="#t" x="113.917" y="89.678"/><use xlink:href="#u" x="139.397" y="89.678"/><use xlink:href="#v" x="151.734" y="89.678"/><use xlink:href="#w" x="180.451" y="89.678"/></svg>